# xmcd
#
# Track frame offsets:
#	150
#	11987
#	23922
#	35492
#	44694
#	57420
#	71112
#	83470
#	94472
#	105088
#	119472
#
# Disc length: 1803 seconds
#
# Revision: 1
# Processed by: cddbd v1.5.1PL0 Copyright (c) Steve Scherf et al.
# Submitted via: audiograbber 1.83.01
#
DISCID=9207090b
DTITLE=Tommy Overstreet - Woman, Your Name Is My Song
DYEAR=1974
DGENRE=Country
TTITLE0=01 - Jeannie Marie, You Were A Lady
TTITLE1=02 - Carolyn
TTITLE2=03 - Laura, What's He Got That I Ain't Got
TTITLE3=04 - Goodbye Rosey
TTITLE4=05 - Sundown Mary
TTITLE5=06 - Ruby Don't Take Your Love To Town
TTITLE6=07 - Gwen (congratulations)
TTITLE7=08 - Smile At Me Sweet Nancy
TTITLE8=09 - Ann (Don't Go Runnin')
TTITLE9=10 - Sweet Caroline
TTITLE10=11 - Polk Salad Annie
EXTD=
EXTT0=
EXTT1=
EXTT2=
EXTT3=
EXTT4=
EXTT5=
EXTT6=
EXTT7=
EXTT8=
EXTT9=
EXTT10=
PLAYORDER=
